<svg xmlns="http://www.w3.org/2000/svg" width="600" height="400" viewBox="0 0 600 400">
  <defs>
    <linearGradient id="sky" x1="0" y1="0" x2="0" y2="1">
      <stop offset="0" stop-color="#8ec9f5"/>
      <stop offset="1" stop-color="#d9efff"/>
    </linearGradient>
    <linearGradient id="court" x1="0" y1="0" x2="0" y2="1">
      <stop offset="0" stop-color="#2f7fb8"/>
      <stop offset="1" stop-color="#256a9e"/>
    </linearGradient>
  </defs>
  <rect width="600" height="400" fill="url(#sky)"/>
  <ellipse cx="120" cy="70" rx="55" ry="18" fill="#ffffff" opacity="0.85"/>
  <ellipse cx="480" cy="55" rx="70" ry="20" fill="#ffffff" opacity="0.7"/>
  <!-- 围网 -->
  <rect x="20" y="60" width="560" height="180" fill="none" stroke="#5a6b78" stroke-width="4"/>
  <g stroke="#5a6b78" stroke-width="1" opacity="0.45">
    <line x1="20" y1="70" x2="580" y2="70"/><line x1="20" y1="90" x2="580" y2="90"/>
    <line x1="20" y1="110" x2="580" y2="110"/><line x1="20" y1="130" x2="580" y2="130"/>
    <line x1="20" y1="150" x2="580" y2="150"/><line x1="20" y1="170" x2="580" y2="170"/>
    <line x1="80" y1="60" x2="80" y2="240"/><line x1="160" y1="60" x2="160" y2="240"/>
    <line x1="240" y1="60" x2="240" y2="240"/><line x1="320" y1="60" x2="320" y2="240"/>
    <line x1="400" y1="60" x2="400" y2="240"/><line x1="480" y1="60" x2="480" y2="240"/>
  </g>
  <!-- 场地（蓝绿硬地，透视） -->
  <polygon points="90,240 510,240 580,380 20,380" fill="url(#court)"/>
  <polygon points="90,240 510,240 580,380 20,380" fill="none" stroke="#e8f4f8" stroke-width="3"/>
  <polygon points="150,240 450,240 490,380 110,380" fill="#3a8fc4" opacity="0.55"/>
  <g stroke="#e8f4f8" stroke-width="2.5">
    <line x1="150" y1="240" x2="110" y2="380"/>
    <line x1="450" y1="240" x2="490" y2="380"/>
    <line x1="128" y1="310" x2="472" y2="310"/>
    <line x1="140" y1="275" x2="460" y2="275"/>
  </g>
  <!-- 球网 -->
  <g>
    <rect x="140" y="212" width="6" height="34" fill="#2d3a44"/>
    <rect x="454" y="212" width="6" height="34" fill="#2d3a44"/>
    <rect x="143" y="216" width="314" height="26" fill="#f0f0f0" opacity="0.92"/>
    <g stroke="#9aa5ad" stroke-width="1">
      <line x1="160" y1="216" x2="160" y2="242"/><line x1="180" y1="216" x2="180" y2="242"/>
      <line x1="200" y1="216" x2="200" y2="242"/><line x1="220" y1="216" x2="220" y2="242"/>
      <line x1="240" y1="216" x2="240" y2="242"/><line x1="260" y1="216" x2="260" y2="242"/>
      <line x1="280" y1="216" x2="280" y2="242"/><line x1="300" y1="216" x2="300" y2="242"/>
      <line x1="320" y1="216" x2="320" y2="242"/><line x1="340" y1="216" x2="340" y2="242"/>
      <line x1="360" y1="216" x2="360" y2="242"/><line x1="380" y1="216" x2="380" y2="242"/>
      <line x1="400" y1="216" x2="400" y2="242"/><line x1="420" y1="216" x2="420" y2="242"/>
      <line x1="440" y1="216" x2="440" y2="242"/>
    </g>
    <line x1="143" y1="229" x2="457" y2="229" stroke="#ffffff" stroke-width="3"/>
  </g>
  <!-- 网球 -->
  <circle cx="330" cy="330" r="16" fill="#d8e830" stroke="#b3c22a" stroke-width="2"/>
  <path d="M318 322 Q330 330 342 322" fill="none" stroke="#ffffff" stroke-width="2.5"/>
  <path d="M318 338 Q330 330 342 338" fill="none" stroke="#ffffff" stroke-width="2.5"/>
</svg>
